<?xml version="1.0" standalone="no"?>
<!DOCTYPE svg PUBLIC "-//W3C//DTD SVG 20010904//EN"
 "http://www.w3.org/TR/2001/REC-SVG-20010904/DTD/svg10.dtd">
<svg version="1.0" xmlns="http://www.w3.org/2000/svg"
 width="100.000000pt" height="100.000000pt" viewBox="0 0 100.000000 100.000000"
 preserveAspectRatio="xMidYMid meet">
<metadata>
Created by potrace 1.14, written by Peter Selinger 2001-2017
</metadata>
<g transform="translate(0.000000,100.000000) scale(0.100000,-0.100000)"
fill="#000000" stroke="none">
<path d="M780 899 c-38 -16 -59 -39 -66 -75 -9 -49 18 -87 88 -120 81 -39 101
-81 57 -125 -17 -17 -30 -20 -68 -16 -25 2 -54 8 -64 12 -16 7 -18 4 -15 -16
2 -19 11 -26 45 -33 89 -19 160 18 170 89 7 52 -19 86 -97 125 -32 16 -60 36
-64 45 -22 57 17 91 94 80 45 -6 50 -5 50 13 0 29 -77 42 -130 21z"/>
<path d="M248 892 l-238 -2 0 -111 c0 -96 3 -114 20 -136 11 -14 20 -31 20
-37 0 -6 8 -19 19 -28 27 -23 38 -133 17 -173 -9 -17 -16 -39 -15 -50 0 -13 7
-5 19 22 41 91 163 98 214 13 35 -60 8 -144 -53 -170 -24 -9 -29 -15 -19 -21
34 -22 137 -2 171 32 23 24 27 24 59 -6 15 -14 36 -25 48 -25 24 0 26 -17 3
-42 -15 -17 -15 -20 -3 -28 8 -6 25 -10 38 -10 12 0 31 -6 42 -12 17 -11 22
-10 29 1 5 8 27 13 60 13 50 0 51 1 51 29 0 30 9 36 27 18 6 -6 36 -23 68 -39
43 -22 63 -27 76 -19 22 11 15 36 -11 44 -11 3 -22 15 -25 26 -4 10 -13 19
-20 19 -20 0 -27 16 -17 37 5 10 16 33 25 50 15 31 15 33 -1 33 -9 0 -23 -4
-31 -9 -9 -6 -18 -5 -25 2 -19 19 -41 99 -41 147 l0 45 -154 0 c-105 0 -155 4
-158 11 -2 6 8 25 22 42 22 26 23 31 9 43 -14 11 -14 13 0 21 9 5 16 15 16 22
0 8 7 19 16 26 8 8 22 29 29 47 14 32 13 38 -10 83 -14 27 -25 58 -25 69 0 11
-3 21 -7 23 -5 2 -115 2 -245 0z m506 -562 c5 -5 -6 -15 -29 -24 -62 -26 -78
-19 -54 26 9 16 17 19 42 14 17 -4 35 -10 41 -16z"/>
<path d="M590 712 l0 -189 23 2 c22 2 22 3 25 188 l2 187 -25 0 -25 0 0 -188z"/>
<path d="M922 434 c-33 -23 -30 -77 6 -102 15 -11 37 -23 50 -26 37 -12 26 18
-14 37 -29 14 -35 22 -32 45 2 22 8 28 36 30 20 2 32 9 32 18 0 19 -49 18 -78
-2z"/>
<path d="M77 263 c-13 -12 -7 -23 13 -23 13 0 18 5 14 15 -7 16 -17 19 -27 8z"/>
<path d="M890 218 c0 -15 52 -29 82 -23 49 11 32 30 -27 31 -30 0 -55 -3 -55
-8z"/>
<path d="M358 97 c-9 -7 -20 -25 -23 -40 -4 -15 -11 -27 -16 -27 -15 0 -10
-17 6 -24 20 -7 75 4 75 15 0 5 -9 9 -21 9 -28 0 -22 42 9 55 12 5 22 13 22
17 0 12 -33 9 -52 -5z"/>
<path d="M808 50 c5 -65 22 -65 22 0 0 33 -4 50 -12 50 -9 0 -12 -15 -10 -50z"/>
<path d="M500 45 c0 -25 5 -45 10 -45 6 0 10 20 10 45 0 25 -4 45 -10 45 -5 0
-10 -20 -10 -45z"/>
<path d="M172 17 c-8 -10 2 -12 49 -12 51 0 57 2 43 12 -23 17 -79 17 -92 0z"/>
<path d="M655 20 c-4 -6 5 -10 22 -9 15 0 39 -3 53 -7 23 -7 24 -6 11 9 -15
19 -76 23 -86 7z"/>
<path d="M880 15 c-10 -12 -10 -15 3 -15 8 0 20 7 27 15 10 12 10 15 -3 15 -8
0 -20 -7 -27 -15z"/>
<path d="M969 14 c-12 -14 -11 -16 5 -13 11 2 21 10 24 17 5 17 -13 15 -29 -4z"/>
</g>
</svg>
